<?xml version="1.0" encoding="UTF-8"?>
<svg width="20px" height="20px" viewBox="0 0 20 20" version="1.1" xmlns="http://www.w3.org/2000/svg" xmlns:xlink="http://www.w3.org/1999/xlink">
    <!-- Generator: Sketch 52.6 (67491) - http://www.bohemiancoding.com/sketch -->
    <title>Artboard</title>
    <desc>Created with Sketch.</desc>
    <g id="Artboard" stroke="none" stroke-width="1" fill="none" fill-rule="evenodd">
        <circle id="Oval" fill="#FFFFFF" fill-rule="nonzero" cx="10" cy="10" r="10"></circle>
        <g id="Group" transform="translate(3.500000, 3.000000)">
            <path d="M0.585324976,12.5556049 C0.585324976,13.1124861 1.03263644,13.5639275 1.58067192,13.5639275 L11.7529487,13.5639275 C12.3026637,13.5639275 12.7482957,13.1162955 12.7482957,12.5634313 L12.7482957,4.53729838 L9.9460165,4.53820434 C9.39447779,4.53838265 8.94748917,4.09949269 8.94764293,3.54543736 L8.94850584,0.436072538 L1.5775333,0.436072538 C1.02955177,0.436072538 0.585324976,0.887963019 0.585324976,1.44439513 L0.585324976,12.5556049 Z" id="Rectangle-3-Copy" fill="#000000"></path>
            <rect id="Rectangle" fill="#FFFFFF" fill-rule="nonzero" x="0.585324976" y="6.17950907" width="12.1629707" height="4.10245466"></rect>
            <polygon id="Rectangle" fill="#000000" points="9.707553 0.846318004 12.3682028 3.77763003 9.707553 3.77763003"></polygon>
            <path d="M0.548484924,9.25785243 L0.548484924,7.20221816 L1.52933972,7.20221816 C1.71122099,7.20221816 1.85022816,7.21904447 1.94636541,7.25269759 C2.04250265,7.2863507 2.12001755,7.34874825 2.17891244,7.43989211 C2.23780732,7.53103597 2.26725433,7.64204285 2.26725433,7.77291608 C2.26725433,7.88696275 2.24473603,7.9853499 2.19969876,8.06808048 C2.1546615,8.15081106 2.09273618,8.21788259 2.01392097,8.26929707 C1.96368709,8.30201538 1.89483307,8.32912443 1.80735684,8.35062503 C1.87751105,8.37586487 1.92861026,8.40110432 1.96065601,8.42634416 C1.98230854,8.44317072 2.01370424,8.47916032 2.05484405,8.53431404 C2.09598386,8.58946776 2.12348216,8.63200092 2.13733978,8.6619148 L2.42185263,9.25785243 L1.75669017,9.25785243 L1.44229698,8.62966406 C1.40245632,8.54833569 1.3669467,8.49551979 1.33576705,8.47121476 C1.29332809,8.43943126 1.24526019,8.42353975 1.19156191,8.42353975 L1.13959609,8.42353975 L1.13959609,9.25785243 L0.548484924,9.25785243 Z M1.13959609,8.03512864 L1.38773287,8.03512864 C1.41458201,8.03512864 1.46654731,8.02578069 1.54363032,8.00708451 C1.58260488,7.99867123 1.61443363,7.97717095 1.63911751,7.94258303 C1.6638014,7.9079951 1.67614316,7.86826632 1.67614316,7.8233955 C1.67614316,7.75702408 1.65665617,7.70607776 1.61768161,7.67055503 C1.57870705,7.63503229 1.50552259,7.61727119 1.39812603,7.61727119 L1.13959609,7.61727119 L1.13959609,8.03512864 Z M2.60892957,7.20221816 L4.18609213,7.20221816 L4.18609213,7.6411087 L3.1987416,7.6411087 L3.1987416,7.96782274 L4.11463913,7.96782274 L4.11463913,8.38708239 L3.1987416,8.38708239 L3.1987416,8.79231998 L4.21467332,8.79231998 L4.21467332,9.25785243 L2.60892957,9.25785243 L2.60892957,7.20221816 Z M4.42903232,8.57778243 L4.988964,8.53992286 C5.00108942,8.63807779 5.02577293,8.71286137 5.06301529,8.76427585 C5.12364238,8.84747383 5.21025121,8.8890722 5.32284438,8.8890722 C5.4068562,8.8890722 5.4715963,8.86780562 5.51706662,8.82527182 C5.56253693,8.78273802 5.58527175,8.7334276 5.58527175,8.67733907 C5.58527175,8.62405497 5.56361955,8.57638043 5.52031448,8.53431404 C5.47700942,8.49224764 5.37654318,8.45251886 5.21891274,8.41512651 C4.96081456,8.35249432 4.7767708,8.26929759 4.66677593,8.16553381 C4.55591497,8.06177004 4.50048532,7.92949657 4.50048532,7.76870946 C4.50048532,7.66307607 4.52884971,7.56328673 4.58557934,7.46933844 C4.64230898,7.37539016 4.72761868,7.30154137 4.84151099,7.24778986 C4.95540331,7.19403836 5.11151573,7.16716301 5.30985292,7.16716301 C5.55322738,7.16716301 5.7387868,7.21600604 5.86653674,7.31369355 C5.99428668,7.41138107 6.07028592,7.56679071 6.09453676,7.77992711 L5.53980166,7.81498227 C5.52507794,7.72243619 5.49411528,7.65513097 5.44691276,7.61306458 C5.39971024,7.57099818 5.3345371,7.5499653 5.25139138,7.5499653 C5.18296938,7.5499653 5.13143712,7.56562311 5.09679307,7.5969392 C5.06214902,7.6282553 5.04482725,7.66634819 5.04482725,7.71121901 C5.04482725,7.74393732 5.05911771,7.77338335 5.08769905,7.799558 C5.11541429,7.82666745 5.181237,7.85190691 5.28516916,7.87527713 C5.54240124,7.93510489 5.72666152,7.99563286 5.83795554,8.05686283 C5.94924955,8.11809281 6.03022881,8.19404488 6.08089573,8.28472134 C6.13156266,8.37539779 6.15689574,8.47682302 6.15689574,8.58900008 C6.15689574,8.72080812 6.1231183,8.84233144 6.0555624,8.95357369 C5.9880065,9.06481593 5.89360287,9.14918116 5.77234869,9.2066719 C5.65109451,9.26416264 5.49822993,9.29290758 5.31375036,9.29290758 C4.98982848,9.29290758 4.76551161,9.22560236 4.64079303,9.09098989 C4.51607444,8.95637743 4.44548825,8.78530998 4.42903232,8.57778243 Z M7.69248564,7.20221816 L8.27969937,7.20221816 L8.27969937,8.42774637 C8.27969937,8.54927151 8.26216108,8.66401757 8.22708398,8.77198799 C8.19200688,8.8799584 8.13701027,8.97437267 8.06209251,9.05523364 C7.98717475,9.1360946 7.90857724,9.19288338 7.82629762,9.22560169 C7.71197225,9.27140732 7.57469725,9.29430979 7.41446852,9.29430979 C7.32179568,9.29430979 7.22067987,9.28729883 7.11111806,9.2732767 C7.00155625,9.25925456 6.90996741,9.23144442 6.8363488,9.18984543 C6.76273019,9.14824644 6.69539183,9.08912067 6.63433169,9.01246635 C6.57327155,8.93581203 6.53148279,8.85682187 6.50896415,8.7754935 C6.4725879,8.64462027 6.45440004,8.52870572 6.45440004,8.42774637 L6.45440004,7.20221816 L7.04161378,7.20221816 L7.04161378,8.4571927 C7.04161378,8.56936975 7.07041121,8.65700676 7.12800695,8.72010636 C7.18560268,8.78320595 7.26549933,8.81475527 7.36769928,8.81475527 C7.46903313,8.81475527 7.54849673,8.78367335 7.60609247,8.72150856 C7.6636882,8.65934378 7.69248564,8.57123937 7.69248564,8.4571927 L7.69248564,7.20221816 Z M8.66294727,7.20221816 L9.43723795,7.20221816 L9.7360414,8.45298608 L10.0335457,7.20221816 L10.8052381,7.20221816 L10.8052381,9.25785243 L10.3245543,9.25785243 L10.3245543,7.69018592 L9.95169954,9.25785243 L9.51648582,9.25785243 L9.14493023,7.69018592 L9.14493023,9.25785243 L8.66294727,9.25785243 L8.66294727,7.20221816 Z M11.179392,7.20221816 L12.7565545,7.20221816 L12.7565545,7.6411087 L11.769204,7.6411087 L11.769204,7.96782274 L12.6851015,7.96782274 L12.6851015,8.38708239 L11.769204,8.38708239 L11.769204,8.79231998 L12.7851357,8.79231998 L12.7851357,9.25785243 L11.179392,9.25785243 L11.179392,7.20221816 Z" id="RESUME" fill="#000000"></path>
        </g>
    </g>
</svg>